<?xml version="1.0" encoding="UTF-8" standalone="no"?>
<!DOCTYPE svg PUBLIC "-//W3C//DTD SVG 1.1//EN"
 "http://www.w3.org/Graphics/SVG/1.1/DTD/svg11.dtd">
<!-- Generated by graphviz version 2.47.0 (20210316.0004)
 -->
<!-- Title: dependencies Pages: 1 -->
<svg width="2112pt" height="284pt"
 viewBox="0.00 0.00 2112.00 284.00" xmlns="http://www.w3.org/2000/svg" xmlns:xlink="http://www.w3.org/1999/xlink">
<g id="graph0" class="graph" transform="scale(1 1) rotate(0) translate(4 280)">
<title>dependencies</title>
<polygon fill="white" stroke="transparent" points="-4,4 -4,-280 2108,-280 2108,4 -4,4"/>
<text text-anchor="start" x="1031.01" y="-42.4" font-family="sans-serif" font-weight="bold" font-size="14.00">Legend</text>
<polygon fill="#ffffb3" stroke="transparent" points="818,-10 818,-30 838,-30 838,-10 818,-10"/>
<text text-anchor="start" x="841.63" y="-15.4" font-family="sans-serif" font-size="14.00"> &#160;Declarations</text>
<polygon fill="#8dd3c7" stroke="transparent" points="931,-10 931,-30 951,-30 951,-10 931,-10"/>
<text text-anchor="start" x="954.73" y="-15.4" font-family="sans-serif" font-size="14.00"> &#160;Module</text>
<polygon fill="#80b1d3" stroke="transparent" points="1017,-10 1017,-30 1037,-30 1037,-10 1017,-10"/>
<text text-anchor="start" x="1040.78" y="-15.4" font-family="sans-serif" font-size="14.00"> &#160;Bootstrap</text>
<polygon fill="#fdb462" stroke="transparent" points="1114,-10 1114,-30 1134,-30 1134,-10 1114,-10"/>
<text text-anchor="start" x="1137.67" y="-15.4" font-family="sans-serif" font-size="14.00"> &#160;Providers</text>
<polygon fill="#fb8072" stroke="transparent" points="1210,-10 1210,-30 1230,-30 1230,-10 1210,-10"/>
<text text-anchor="start" x="1233.73" y="-15.4" font-family="sans-serif" font-size="14.00"> &#160;Exports</text>
<g id="clust1" class="cluster">
<title>cluster_AccountModule</title>
<polygon fill="none" stroke="black" stroke-dasharray="1,5" points="8,-70 8,-195 836,-195 836,-70 8,-70"/>
</g>
<g id="clust2" class="cluster">
<title>cluster_AccountModule_declarations</title>
<polygon fill="none" stroke="black" points="192,-78 192,-130 828,-130 828,-78 192,-78"/>
</g>
<g id="clust7" class="cluster">
<title>cluster_AccountModule_imports</title>
<polygon fill="none" stroke="black" points="16,-78 16,-130 184,-130 184,-78 16,-78"/>
</g>
<g id="clust17" class="cluster">
<title>cluster_AppModule</title>
<polygon fill="none" stroke="black" stroke-dasharray="1,5" points="844,-70 844,-268 2096,-268 2096,-70 844,-70"/>
</g>
<g id="clust18" class="cluster">
<title>cluster_AppModule_declarations</title>
<polygon fill="none" stroke="black" points="1698,-78 1698,-130 2088,-130 2088,-78 1698,-78"/>
</g>
<g id="clust22" class="cluster">
<title>cluster_AppModule_imports</title>
<polygon fill="none" stroke="black" points="1546,-78 1546,-130 1690,-130 1690,-78 1546,-78"/>
</g>
<g id="clust24" class="cluster">
<title>cluster_AppModule_bootstrap</title>
<polygon fill="none" stroke="black" points="1475,-208 1475,-260 1599,-260 1599,-208 1475,-208"/>
</g>
<g id="clust25" class="cluster">
<title>cluster_AppModule_providers</title>
<polygon fill="none" stroke="black" points="852,-78 852,-130 1538,-130 1538,-78 852,-78"/>
</g>
<!-- LayoutComponent -->
<g id="node1" class="node">
<title>LayoutComponent</title>
<polygon fill="#ffffb3" stroke="black" points="820.49,-122 699.51,-122 699.51,-86 820.49,-86 820.49,-122"/>
<text text-anchor="middle" x="760" y="-99.8" font-family="Times,serif" font-size="14.00">LayoutComponent</text>
</g>
<!-- AccountModule -->
<g id="node5" class="node">
<title>AccountModule</title>
<polygon fill="#8dd3c7" stroke="black" points="500.48,-187 497.48,-191 476.48,-191 473.48,-187 393.52,-187 393.52,-151 500.48,-151 500.48,-187"/>
<text text-anchor="middle" x="447" y="-164.8" font-family="Times,serif" font-size="14.00">AccountModule</text>
</g>
<!-- LayoutComponent&#45;&gt;AccountModule -->
<g id="edge1" class="edge">
<title>LayoutComponent&#45;&gt;AccountModule</title>
<path fill="none" stroke="black" d="M760,-122.25C760,-145.02 760,-181 760,-181 760,-181 510.81,-181 510.81,-181"/>
<polygon fill="black" stroke="black" points="510.81,-177.5 500.81,-181 510.81,-184.5 510.81,-177.5"/>
</g>
<!-- LoginComponent -->
<g id="node2" class="node">
<title>LoginComponent</title>
<polygon fill="#ffffb3" stroke="black" points="681.28,-122 566.72,-122 566.72,-86 681.28,-86 681.28,-122"/>
<text text-anchor="middle" x="624" y="-99.8" font-family="Times,serif" font-size="14.00">LoginComponent</text>
</g>
<!-- LoginComponent&#45;&gt;AccountModule -->
<g id="edge2" class="edge">
<title>LoginComponent&#45;&gt;AccountModule</title>
<path fill="none" stroke="black" d="M624,-122.28C624,-143.32 624,-175 624,-175 624,-175 510.59,-175 510.59,-175"/>
<polygon fill="black" stroke="black" points="510.59,-171.5 500.59,-175 510.59,-178.5 510.59,-171.5"/>
</g>
<!-- PasswordStrengthBarComponent -->
<g id="node3" class="node">
<title>PasswordStrengthBarComponent</title>
<polygon fill="#ffffb3" stroke="black" points="548.14,-122 345.86,-122 345.86,-86 548.14,-86 548.14,-122"/>
<text text-anchor="middle" x="447" y="-99.8" font-family="Times,serif" font-size="14.00">PasswordStrengthBarComponent</text>
</g>
<!-- PasswordStrengthBarComponent&#45;&gt;AccountModule -->
<g id="edge3" class="edge">
<title>PasswordStrengthBarComponent&#45;&gt;AccountModule</title>
<path fill="none" stroke="black" d="M447,-122.11C447,-122.11 447,-140.99 447,-140.99"/>
<polygon fill="black" stroke="black" points="443.5,-140.99 447,-150.99 450.5,-140.99 443.5,-140.99"/>
</g>
<!-- RegisterComponent -->
<g id="node4" class="node">
<title>RegisterComponent</title>
<polygon fill="#ffffb3" stroke="black" points="327.98,-122 200.02,-122 200.02,-86 327.98,-86 327.98,-122"/>
<text text-anchor="middle" x="264" y="-99.8" font-family="Times,serif" font-size="14.00">RegisterComponent</text>
</g>
<!-- RegisterComponent&#45;&gt;AccountModule -->
<g id="edge4" class="edge">
<title>RegisterComponent&#45;&gt;AccountModule</title>
<path fill="none" stroke="black" d="M264,-122.02C264,-139.37 264,-163 264,-163 264,-163 383.08,-163 383.08,-163"/>
<polygon fill="black" stroke="black" points="383.08,-166.5 393.08,-163 383.08,-159.5 383.08,-166.5"/>
</g>
<!-- AccountRoutingModule -->
<g id="node6" class="node">
<title>AccountRoutingModule</title>
<polygon fill="#8dd3c7" stroke="black" points="176.09,-122 173.09,-126 152.09,-126 149.09,-122 23.91,-122 23.91,-86 176.09,-86 176.09,-122"/>
<text text-anchor="middle" x="100" y="-99.8" font-family="Times,serif" font-size="14.00">AccountRoutingModule</text>
</g>
<!-- AccountRoutingModule&#45;&gt;AccountModule -->
<g id="edge5" class="edge">
<title>AccountRoutingModule&#45;&gt;AccountModule</title>
<path fill="none" stroke="black" d="M100,-122.28C100,-143.32 100,-175 100,-175 100,-175 383.16,-175 383.16,-175"/>
<polygon fill="black" stroke="black" points="383.16,-178.5 393.16,-175 383.16,-171.5 383.16,-178.5"/>
</g>
<!-- AlertComponent -->
<g id="node7" class="node">
<title>AlertComponent</title>
<polygon fill="#ffffb3" stroke="black" points="2080.1,-122 1969.9,-122 1969.9,-86 2080.1,-86 2080.1,-122"/>
<text text-anchor="middle" x="2025" y="-99.8" font-family="Times,serif" font-size="14.00">AlertComponent</text>
</g>
<!-- AppModule -->
<g id="node10" class="node">
<title>AppModule</title>
<polygon fill="#8dd3c7" stroke="black" points="1578.66,-187 1575.66,-191 1554.66,-191 1551.66,-187 1495.34,-187 1495.34,-151 1578.66,-151 1578.66,-187"/>
<text text-anchor="middle" x="1537" y="-164.8" font-family="Times,serif" font-size="14.00">AppModule</text>
</g>
<!-- AlertComponent&#45;&gt;AppModule -->
<g id="edge6" class="edge">
<title>AlertComponent&#45;&gt;AppModule</title>
<path fill="none" stroke="black" d="M2025,-122.29C2025,-144.21 2025,-178 2025,-178 2025,-178 1589.03,-178 1589.03,-178"/>
<polygon fill="black" stroke="black" points="1589.03,-174.5 1579.03,-178 1589.03,-181.5 1589.03,-174.5"/>
</g>
<!-- AppComponent -->
<g id="node8" class="node">
<title>AppComponent</title>
<polygon fill="#ffffb3" stroke="black" points="1951.94,-122 1846.06,-122 1846.06,-86 1951.94,-86 1951.94,-122"/>
<text text-anchor="middle" x="1899" y="-99.8" font-family="Times,serif" font-size="14.00">AppComponent</text>
</g>
<!-- AppComponent&#45;&gt;AppModule -->
<g id="edge7" class="edge">
<title>AppComponent&#45;&gt;AppModule</title>
<path fill="none" stroke="black" d="M1899,-122.11C1899,-141.34 1899,-169 1899,-169 1899,-169 1588.88,-169 1588.88,-169"/>
<polygon fill="black" stroke="black" points="1588.88,-165.5 1578.88,-169 1588.88,-172.5 1588.88,-165.5"/>
</g>
<!-- UploadComponent -->
<g id="node9" class="node">
<title>UploadComponent</title>
<polygon fill="#ffffb3" stroke="black" points="1828.05,-122 1705.95,-122 1705.95,-86 1828.05,-86 1828.05,-122"/>
<text text-anchor="middle" x="1767" y="-99.8" font-family="Times,serif" font-size="14.00">UploadComponent</text>
</g>
<!-- UploadComponent&#45;&gt;AppModule -->
<g id="edge8" class="edge">
<title>UploadComponent&#45;&gt;AppModule</title>
<path fill="none" stroke="black" d="M1767,-122.03C1767,-138.4 1767,-160 1767,-160 1767,-160 1588.92,-160 1588.92,-160"/>
<polygon fill="black" stroke="black" points="1588.92,-156.5 1578.92,-160 1588.92,-163.5 1588.92,-156.5"/>
</g>
<!-- AppComponent  -->
<g id="node12" class="node">
<title>AppComponent </title>
<polygon fill="#80b1d3" stroke="black" points="1591.44,-252 1482.56,-252 1482.56,-216 1591.44,-216 1591.44,-252"/>
<text text-anchor="middle" x="1537" y="-229.8" font-family="Times,serif" font-size="14.00">AppComponent </text>
</g>
<!-- AppModule&#45;&gt;AppComponent  -->
<g id="edge10" class="edge">
<title>AppModule&#45;&gt;AppComponent </title>
<path fill="none" stroke="black" stroke-dasharray="1,5" d="M1537,-187.11C1537,-187.11 1537,-205.99 1537,-205.99"/>
<polygon fill="black" stroke="black" points="1533.5,-205.99 1537,-215.99 1540.5,-205.99 1533.5,-205.99"/>
</g>
<!-- AppRoutingModule -->
<g id="node11" class="node">
<title>AppRoutingModule</title>
<polygon fill="#8dd3c7" stroke="black" points="1682.27,-122 1679.27,-126 1658.27,-126 1655.27,-122 1553.73,-122 1553.73,-86 1682.27,-86 1682.27,-122"/>
<text text-anchor="middle" x="1618" y="-99.8" font-family="Times,serif" font-size="14.00">AppRoutingModule</text>
</g>
<!-- AppRoutingModule&#45;&gt;AppModule -->
<g id="edge9" class="edge">
<title>AppRoutingModule&#45;&gt;AppModule</title>
<path fill="none" stroke="black" d="M1566.22,-122.11C1566.22,-122.11 1566.22,-140.99 1566.22,-140.99"/>
<polygon fill="black" stroke="black" points="1562.72,-140.99 1566.22,-150.99 1569.72,-140.99 1562.72,-140.99"/>
</g>
<!-- AccountService -->
<g id="node13" class="node">
<title>AccountService</title>
<ellipse fill="#fdb462" stroke="black" cx="1457" cy="-104" rx="72.91" ry="18"/>
<text text-anchor="middle" x="1457" y="-99.8" font-family="Times,serif" font-size="14.00">AccountService</text>
</g>
<!-- AccountService&#45;&gt;AppModule -->
<g id="edge11" class="edge">
<title>AccountService&#45;&gt;AppModule</title>
<path fill="none" stroke="black" d="M1512.44,-115.92C1512.44,-115.92 1512.44,-140.77 1512.44,-140.77"/>
<polygon fill="black" stroke="black" points="1508.94,-140.77 1512.44,-150.77 1515.94,-140.77 1508.94,-140.77"/>
</g>
<!-- BasicInterceptor -->
<g id="node14" class="node">
<title>BasicInterceptor</title>
<ellipse fill="#fdb462" stroke="black" cx="1291" cy="-104" rx="74.69" ry="18"/>
<text text-anchor="middle" x="1291" y="-99.8" font-family="Times,serif" font-size="14.00">BasicInterceptor</text>
</g>
<!-- BasicInterceptor&#45;&gt;AppModule -->
<g id="edge12" class="edge">
<title>BasicInterceptor&#45;&gt;AppModule</title>
<path fill="none" stroke="black" d="M1291,-122.24C1291,-137.57 1291,-157 1291,-157 1291,-157 1485.27,-157 1485.27,-157"/>
<polygon fill="black" stroke="black" points="1485.27,-160.5 1495.27,-157 1485.27,-153.5 1485.27,-160.5"/>
</g>
<!-- ErrorInterceptor -->
<g id="node15" class="node">
<title>ErrorInterceptor</title>
<ellipse fill="#fdb462" stroke="black" cx="1124" cy="-104" rx="73.53" ry="18"/>
<text text-anchor="middle" x="1124" y="-99.8" font-family="Times,serif" font-size="14.00">ErrorInterceptor</text>
</g>
<!-- ErrorInterceptor&#45;&gt;AppModule -->
<g id="edge13" class="edge">
<title>ErrorInterceptor&#45;&gt;AppModule</title>
<path fill="none" stroke="black" d="M1124,-122.02C1124,-139.37 1124,-163 1124,-163 1124,-163 1485.13,-163 1485.13,-163"/>
<polygon fill="black" stroke="black" points="1485.13,-166.5 1495.13,-163 1485.13,-159.5 1485.13,-166.5"/>
</g>
<!-- SignedURLService -->
<g id="node16" class="node">
<title>SignedURLService</title>
<ellipse fill="#fdb462" stroke="black" cx="946" cy="-104" rx="86.25" ry="18"/>
<text text-anchor="middle" x="946" y="-99.8" font-family="Times,serif" font-size="14.00">SignedURLService</text>
</g>
<!-- SignedURLService&#45;&gt;AppModule -->
<g id="edge14" class="edge">
<title>SignedURLService&#45;&gt;AppModule</title>
<path fill="none" stroke="black" d="M946,-122.11C946,-141.34 946,-169 946,-169 946,-169 1484.97,-169 1484.97,-169"/>
<polygon fill="black" stroke="black" points="1484.97,-172.5 1494.97,-169 1484.97,-165.5 1484.97,-172.5"/>
</g>
</g>
</svg>
