<?xml version="1.0" encoding="UTF-8" standalone="no"?>
<!DOCTYPE svg PUBLIC "-//W3C//DTD SVG 1.1//EN"
 "http://www.w3.org/Graphics/SVG/1.1/DTD/svg11.dtd">
<!-- Generated by graphviz version 2.47.0 (20210316.0004)
 -->
<!-- Title: dependencies Pages: 1 -->
<svg width="1276pt" height="284pt"
 viewBox="0.00 0.00 1276.00 284.00" xmlns="http://www.w3.org/2000/svg" xmlns:xlink="http://www.w3.org/1999/xlink">
<g id="graph0" class="graph" transform="scale(1 1) rotate(0) translate(4 280)">
<title>dependencies</title>
<polygon fill="white" stroke="transparent" points="-4,4 -4,-280 1272,-280 1272,4 -4,4"/>
<text text-anchor="start" x="613.01" y="-42.4" font-family="sans-serif" font-weight="bold" font-size="14.00">Legend</text>
<polygon fill="#ffffb3" stroke="transparent" points="400,-10 400,-30 420,-30 420,-10 400,-10"/>
<text text-anchor="start" x="423.63" y="-15.4" font-family="sans-serif" font-size="14.00"> &#160;Declarations</text>
<polygon fill="#8dd3c7" stroke="transparent" points="513,-10 513,-30 533,-30 533,-10 513,-10"/>
<text text-anchor="start" x="536.73" y="-15.4" font-family="sans-serif" font-size="14.00"> &#160;Module</text>
<polygon fill="#80b1d3" stroke="transparent" points="599,-10 599,-30 619,-30 619,-10 599,-10"/>
<text text-anchor="start" x="622.78" y="-15.4" font-family="sans-serif" font-size="14.00"> &#160;Bootstrap</text>
<polygon fill="#fdb462" stroke="transparent" points="696,-10 696,-30 716,-30 716,-10 696,-10"/>
<text text-anchor="start" x="719.67" y="-15.4" font-family="sans-serif" font-size="14.00"> &#160;Providers</text>
<polygon fill="#fb8072" stroke="transparent" points="792,-10 792,-30 812,-30 812,-10 792,-10"/>
<text text-anchor="start" x="815.73" y="-15.4" font-family="sans-serif" font-size="14.00"> &#160;Exports</text>
<g id="clust1" class="cluster">
<title>cluster_AppModule</title>
<polygon fill="none" stroke="black" stroke-dasharray="1,5" points="8,-70 8,-268 1260,-268 1260,-70 8,-70"/>
</g>
<g id="clust2" class="cluster">
<title>cluster_AppModule_declarations</title>
<polygon fill="none" stroke="black" points="862,-78 862,-130 1252,-130 1252,-78 862,-78"/>
</g>
<g id="clust9" class="cluster">
<title>cluster_AppModule_providers</title>
<polygon fill="none" stroke="black" points="168,-78 168,-130 854,-130 854,-78 168,-78"/>
</g>
<g id="clust6" class="cluster">
<title>cluster_AppModule_imports</title>
<polygon fill="none" stroke="black" points="16,-78 16,-130 160,-130 160,-78 16,-78"/>
</g>
<g id="clust8" class="cluster">
<title>cluster_AppModule_bootstrap</title>
<polygon fill="none" stroke="black" points="628,-208 628,-260 752,-260 752,-208 628,-208"/>
</g>
<!-- AlertComponent -->
<g id="node1" class="node">
<title>AlertComponent</title>
<polygon fill="#ffffb3" stroke="black" points="1244.1,-122 1133.9,-122 1133.9,-86 1244.1,-86 1244.1,-122"/>
<text text-anchor="middle" x="1189" y="-99.8" font-family="Times,serif" font-size="14.00">AlertComponent</text>
</g>
<!-- AppModule -->
<g id="node4" class="node">
<title>AppModule</title>
<polygon fill="#8dd3c7" stroke="black" points="731.66,-187 728.66,-191 707.66,-191 704.66,-187 648.34,-187 648.34,-151 731.66,-151 731.66,-187"/>
<text text-anchor="middle" x="690" y="-164.8" font-family="Times,serif" font-size="14.00">AppModule</text>
</g>
<!-- AlertComponent&#45;&gt;AppModule -->
<g id="edge1" class="edge">
<title>AlertComponent&#45;&gt;AppModule</title>
<path fill="none" stroke="black" d="M1189,-122.29C1189,-144.21 1189,-178 1189,-178 1189,-178 741.69,-178 741.69,-178"/>
<polygon fill="black" stroke="black" points="741.69,-174.5 731.69,-178 741.69,-181.5 741.69,-174.5"/>
</g>
<!-- AppComponent -->
<g id="node2" class="node">
<title>AppComponent</title>
<polygon fill="#ffffb3" stroke="black" points="1115.94,-122 1010.06,-122 1010.06,-86 1115.94,-86 1115.94,-122"/>
<text text-anchor="middle" x="1063" y="-99.8" font-family="Times,serif" font-size="14.00">AppComponent</text>
</g>
<!-- AppComponent&#45;&gt;AppModule -->
<g id="edge2" class="edge">
<title>AppComponent&#45;&gt;AppModule</title>
<path fill="none" stroke="black" d="M1063,-122.11C1063,-141.34 1063,-169 1063,-169 1063,-169 741.7,-169 741.7,-169"/>
<polygon fill="black" stroke="black" points="741.7,-165.5 731.7,-169 741.7,-172.5 741.7,-165.5"/>
</g>
<!-- UploadComponent -->
<g id="node3" class="node">
<title>UploadComponent</title>
<polygon fill="#ffffb3" stroke="black" points="992.05,-122 869.95,-122 869.95,-86 992.05,-86 992.05,-122"/>
<text text-anchor="middle" x="931" y="-99.8" font-family="Times,serif" font-size="14.00">UploadComponent</text>
</g>
<!-- UploadComponent&#45;&gt;AppModule -->
<g id="edge3" class="edge">
<title>UploadComponent&#45;&gt;AppModule</title>
<path fill="none" stroke="black" d="M931,-122.03C931,-138.4 931,-160 931,-160 931,-160 741.7,-160 741.7,-160"/>
<polygon fill="black" stroke="black" points="741.7,-156.5 731.7,-160 741.7,-163.5 741.7,-156.5"/>
</g>
<!-- AppComponent  -->
<g id="node6" class="node">
<title>AppComponent </title>
<polygon fill="#80b1d3" stroke="black" points="744.44,-252 635.56,-252 635.56,-216 744.44,-216 744.44,-252"/>
<text text-anchor="middle" x="690" y="-229.8" font-family="Times,serif" font-size="14.00">AppComponent </text>
</g>
<!-- AppModule&#45;&gt;AppComponent  -->
<g id="edge5" class="edge">
<title>AppModule&#45;&gt;AppComponent </title>
<path fill="none" stroke="black" stroke-dasharray="1,5" d="M690,-187.11C690,-187.11 690,-205.99 690,-205.99"/>
<polygon fill="black" stroke="black" points="686.5,-205.99 690,-215.99 693.5,-205.99 686.5,-205.99"/>
</g>
<!-- AppRoutingModule -->
<g id="node5" class="node">
<title>AppRoutingModule</title>
<polygon fill="#8dd3c7" stroke="black" points="152.27,-122 149.27,-126 128.27,-126 125.27,-122 23.73,-122 23.73,-86 152.27,-86 152.27,-122"/>
<text text-anchor="middle" x="88" y="-99.8" font-family="Times,serif" font-size="14.00">AppRoutingModule</text>
</g>
<!-- AppRoutingModule&#45;&gt;AppModule -->
<g id="edge4" class="edge">
<title>AppRoutingModule&#45;&gt;AppModule</title>
<path fill="none" stroke="black" d="M88,-122.29C88,-144.21 88,-178 88,-178 88,-178 638.15,-178 638.15,-178"/>
<polygon fill="black" stroke="black" points="638.15,-181.5 648.15,-178 638.15,-174.5 638.15,-181.5"/>
</g>
<!-- AccountService -->
<g id="node7" class="node">
<title>AccountService</title>
<ellipse fill="#fdb462" stroke="black" cx="773" cy="-104" rx="72.91" ry="18"/>
<text text-anchor="middle" x="773" y="-99.8" font-family="Times,serif" font-size="14.00">AccountService</text>
</g>
<!-- AccountService&#45;&gt;AppModule -->
<g id="edge6" class="edge">
<title>AccountService&#45;&gt;AppModule</title>
<path fill="none" stroke="black" d="M716.06,-115.32C716.06,-115.32 716.06,-140.94 716.06,-140.94"/>
<polygon fill="black" stroke="black" points="712.56,-140.94 716.06,-150.94 719.56,-140.94 712.56,-140.94"/>
</g>
<!-- BasicInterceptor -->
<g id="node8" class="node">
<title>BasicInterceptor</title>
<ellipse fill="#fdb462" stroke="black" cx="607" cy="-104" rx="74.69" ry="18"/>
<text text-anchor="middle" x="607" y="-99.8" font-family="Times,serif" font-size="14.00">BasicInterceptor</text>
</g>
<!-- BasicInterceptor&#45;&gt;AppModule -->
<g id="edge7" class="edge">
<title>BasicInterceptor&#45;&gt;AppModule</title>
<path fill="none" stroke="black" d="M665.01,-115.62C665.01,-115.62 665.01,-140.85 665.01,-140.85"/>
<polygon fill="black" stroke="black" points="661.51,-140.85 665.01,-150.85 668.51,-140.85 661.51,-140.85"/>
</g>
<!-- ErrorInterceptor -->
<g id="node9" class="node">
<title>ErrorInterceptor</title>
<ellipse fill="#fdb462" stroke="black" cx="440" cy="-104" rx="73.53" ry="18"/>
<text text-anchor="middle" x="440" y="-99.8" font-family="Times,serif" font-size="14.00">ErrorInterceptor</text>
</g>
<!-- ErrorInterceptor&#45;&gt;AppModule -->
<g id="edge8" class="edge">
<title>ErrorInterceptor&#45;&gt;AppModule</title>
<path fill="none" stroke="black" d="M440,-122.03C440,-138.4 440,-160 440,-160 440,-160 638.16,-160 638.16,-160"/>
<polygon fill="black" stroke="black" points="638.16,-163.5 648.16,-160 638.16,-156.5 638.16,-163.5"/>
</g>
<!-- SignedURLService -->
<g id="node10" class="node">
<title>SignedURLService</title>
<ellipse fill="#fdb462" stroke="black" cx="262" cy="-104" rx="86.25" ry="18"/>
<text text-anchor="middle" x="262" y="-99.8" font-family="Times,serif" font-size="14.00">SignedURLService</text>
</g>
<!-- SignedURLService&#45;&gt;AppModule -->
<g id="edge9" class="edge">
<title>SignedURLService&#45;&gt;AppModule</title>
<path fill="none" stroke="black" d="M262,-122.11C262,-141.34 262,-169 262,-169 262,-169 638.18,-169 638.18,-169"/>
<polygon fill="black" stroke="black" points="638.18,-172.5 648.18,-169 638.18,-165.5 638.18,-172.5"/>
</g>
</g>
</svg>
